<?xml version="1.0" standalone="no"?>
<!DOCTYPE svg PUBLIC "-//W3C//DTD SVG 20010904//EN"
 "http://www.w3.org/TR/2001/REC-SVG-20010904/DTD/svg10.dtd">
<svg version="1.0" xmlns="http://www.w3.org/2000/svg"
 width="1000.000000pt" height="1000.000000pt" viewBox="0 0 1000.000000 1000.000000"
 preserveAspectRatio="xMidYMid meet">
<metadata>
Created by potrace 1.14, written by Peter Selinger 2001-2017
</metadata>
<g transform="translate(0.000000,1000.000000) scale(0.100000,-0.100000)"
fill="#000000" stroke="none">
<path d="M4738 9995 c-2 -1 -52 -6 -113 -9 -60 -4 -119 -9 -130 -11 -11 -2
-47 -7 -80 -10 -33 -3 -71 -7 -84 -10 -14 -2 -45 -7 -70 -10 -25 -3 -57 -7
-71 -10 -14 -3 -50 -9 -80 -15 -93 -16 -103 -18 -180 -35 -41 -10 -91 -21
-110 -25 -98 -20 -381 -106 -535 -162 -493 -179 -1051 -496 -1435 -814 -244
-203 -476 -429 -640 -624 -25 -29 -49 -58 -55 -64 -5 -6 -35 -42 -66 -81 -361
-454 -646 -978 -829 -1525 -51 -152 -119 -394 -134 -470 -2 -14 -14 -68 -25
-120 -11 -52 -25 -124 -31 -160 -5 -36 -12 -76 -14 -90 -6 -35 -15 -106 -22
-170 -3 -30 -7 -66 -10 -80 -24 -152 -25 -862 0 -995 2 -11 7 -51 11 -90 4
-38 9 -77 10 -86 2 -9 6 -40 10 -70 3 -30 13 -85 20 -124 8 -38 17 -86 20
-105 11 -64 55 -251 81 -344 14 -50 27 -101 30 -112 9 -47 109 -328 167 -469
113 -279 301 -633 470 -885 46 -69 194 -271 230 -316 372 -455 705 -762 1143
-1056 301 -202 553 -334 969 -509 160 -67 533 -179 745 -224 70 -15 283 -54
315 -58 22 -3 76 -10 120 -16 224 -29 337 -36 630 -36 228 0 433 8 510 20 17
3 50 7 75 9 88 8 157 18 290 43 74 13 149 27 165 29 17 3 107 25 200 49 645
163 1253 456 1785 861 139 106 153 117 255 207 389 339 737 750 993 1172 216
357 406 779 515 1145 28 93 75 270 83 310 3 14 9 41 14 60 24 89 71 367 85
500 3 30 8 69 10 85 27 194 27 791 0 1010 -2 17 -6 57 -10 89 -3 32 -7 62 -9
65 -2 3 -7 36 -10 74 -4 37 -9 73 -11 80 -2 6 -7 29 -10 50 -10 70 -50 253
-89 412 -118 471 -386 1067 -679 1505 -46 69 -193 271 -230 316 -314 383 -595
656 -944 917 -351 262 -808 513 -1198 658 -33 12 -73 28 -90 35 -75 31 -463
146 -545 160 -14 3 -33 7 -42 10 -9 3 -25 7 -35 9 -10 2 -63 12 -118 23 -55
12 -152 28 -215 37 -63 9 -125 18 -138 20 -13 2 -65 7 -115 11 -51 3 -101 8
-112 11 -22 5 -631 13 -637 8z"/>
</g>
</svg>
